<svg xmlns="http://www.w3.org/2000/svg" width="122" height="117.033" viewBox="0 0 122 117.033"><defs><style>.a{fill:#dbbe6f;}</style></defs><g transform="translate(-1040.459 -2427.485)"><path class="a" d="M1268.176,2498.623c7.9,1.614,8.218,11.23,8.226,12.459,0,.077,0,.129,0,.155a1.639,1.639,0,0,0,1.634,1.623h0a1.638,1.638,0,0,0,1.639-1.61c0-.089,0-.182,0-.274.032-1.616.554-10.787,8.224-12.353a1.638,1.638,0,0,0,0-3.21c-7.67-1.566-8.192-10.738-8.224-12.353,0-.093,0-.185,0-.274a1.638,1.638,0,0,0-1.639-1.611h0a1.639,1.639,0,0,0-1.634,1.624c0,.026,0,.077,0,.152-.008,1.229-.322,10.849-8.226,12.462a1.638,1.638,0,0,0,0,3.21Zm9.863-7.819a6.338,6.338,0,0,1,0,12.428,6.328,6.328,0,0,1,0-12.428Z" transform="translate(-167.044 -39.613)"/><path class="a" d="M1060.586,2623.06c9,1.837,9.373,12.729,9.382,14.157,0,.088,0,.148,0,.178a1.64,1.64,0,0,0,1.634,1.624h0a1.638,1.638,0,0,0,1.639-1.611c0-.1,0-.2,0-.309.037-1.842.633-12.253,9.38-14.039a1.639,1.639,0,0,0,0-3.211c-8.746-1.786-9.343-12.2-9.38-14.04,0-.1,0-.207,0-.308a1.638,1.638,0,0,0-1.639-1.611h0a1.64,1.64,0,0,0-1.634,1.623c0,.024,0,.071,0,.137-.011,1.164-.357,12.357-9.382,14.2a1.639,1.639,0,0,0,0,3.211Zm11.02-9.083a7.635,7.635,0,0,1,0,14.956,7.624,7.624,0,0,1,0-14.956Z" transform="translate(-13.882 -130.153)"/><path class="a" d="M1105.3,2452.484c12.776,2.606,13.282,17.936,13.293,19.932,0,.113,0,.188,0,.227v.015a1.639,1.639,0,0,0,1,1.484,1.617,1.617,0,0,0,.635.128,1.637,1.637,0,0,0,1.163-.484,1.661,1.661,0,0,0,.175-.208,1.631,1.631,0,0,0,.3-.918c0-.009,0-.054,0-.132,0-1.469.339-17.4,13.295-20.044a1.638,1.638,0,0,0,0-3.211c-12.955-2.644-13.291-18.574-13.295-20.044,0-.078,0-.123,0-.132a1.63,1.63,0,0,0-.3-.924,1.547,1.547,0,0,0-.17-.2,1.639,1.639,0,0,0-2.8,1.127v.016c0,.038,0,.114,0,.227-.011,2-.517,17.325-13.293,19.933a1.638,1.638,0,0,0,0,3.211Zm14.912-13.646c1.47,4.464,4.271,9.349,9.607,12.039-5.336,2.691-8.137,7.576-9.607,12.041-1.481-4.466-4.284-9.352-9.586-12.039C1115.932,2448.19,1118.734,2443.3,1120.215,2438.838Z" transform="translate(-46.875)"/><path class="a" d="M1162.328,2692.148l-8.582-20.08a1.639,1.639,0,0,0-1.507-.995h-10.123l-8.157-19.087a1.639,1.639,0,0,0-1.507-.995H1122.43l-8.259-19.325a1.64,1.64,0,0,0-1.507-.995h-22.41a1.64,1.64,0,0,0-1.507.995l-8.258,19.325h-10.022a1.64,1.64,0,0,0-1.507.995l-8.157,19.087H1050.68a1.639,1.639,0,0,0-1.507.995l-8.582,20.08a1.639,1.639,0,0,0,1.507,2.283h118.723a1.639,1.639,0,0,0,1.507-2.283Zm-23.776-21.075h-34.609l7.182-16.8h20.245Zm-17.3,17.55-6.1-14.272h12.2Zm-19.787-20.081-6.2-14.511h12.4Zm-10.123-34.593h20.246l7.182,16.8h-34.61Zm-19.787,20.319h20.246l7.182,16.8h-34.609Zm10.123,34.354-6.1-14.272h12.2Zm-37.092,2.531,7.182-16.8h20.246l7.182,16.8Zm39.574,0,7.182-16.8h20.246l7.182,16.8Zm39.574,0,7.182-16.8h20.246l7.182,16.8Z" transform="translate(0 -149.913)"/></g></svg>