<svg xmlns="http://www.w3.org/2000/svg" width="115" height="115" viewBox="0 0 115 97.685"><defs><style>.a{fill:#dbbe6f;}</style></defs><g transform="translate(-1141.909 -453.963)"><path class="a" d="M1288.155,599.782h-11.613a2.012,2.012,0,0,0-2.01,2.01v39.094a1.675,1.675,0,0,0,1.675,1.674h12.283a1.674,1.674,0,0,0,1.674-1.674V601.792A2.012,2.012,0,0,0,1288.155,599.782Zm-1.339,39.429h-8.934v-36.08h8.934Z" transform="translate(-82.865 -91.109)"/><path class="a" d="M1354.247,562.983a2,2,0,0,0-.615-.1h-11.614a2,2,0,0,0-.615.1,1.675,1.675,0,0,0-1.394,1.651v53.4a1.674,1.674,0,0,0,1.674,1.674h12.283a1.674,1.674,0,0,0,1.674-1.674v-53.4A1.675,1.675,0,0,0,1354.247,562.983Zm-1.955,53.372h-8.934v-50.12h8.934Z" transform="translate(-123.775 -68.057)"/><path class="a" d="M1419.107,516.471h-11.613a2.011,2.011,0,0,0-2.01,2.01v70.548a1.674,1.674,0,0,0,1.674,1.674h12.283a1.674,1.674,0,0,0,1.675-1.674V518.481A2.012,2.012,0,0,0,1419.107,516.471Zm-1.339,70.883h-8.934V519.82h8.934Z" transform="translate(-164.685 -39.055)"/><path class="a" d="M1221.577,623.585h-11.613a2.011,2.011,0,0,0-2.01,2.009v30.163a1.675,1.675,0,0,0,1.674,1.674h12.283a1.674,1.674,0,0,0,1.674-1.674V625.594A2.011,2.011,0,0,0,1221.577,623.585Zm-1.34,30.5H1211.3V626.934h8.934Z" transform="translate(-41.266 -105.981)"/><path class="a" d="M1155.532,653.934h-11.613a2.012,2.012,0,0,0-2.01,2.009V674.72a1.675,1.675,0,0,0,1.674,1.674h12.283a1.674,1.674,0,0,0,1.674-1.674V655.943A2.011,2.011,0,0,0,1155.532,653.934Zm-1.34,19.111h-8.934V657.283h8.934Z" transform="translate(0 -124.944)"/><path class="a" d="M1256.738,455.57a1.674,1.674,0,0,0-1.741-1.6l-10.263.419a1.675,1.675,0,0,0,.137,3.346l5.8-.237c-39.031,35.358-87.695,51.88-107.141,57.414a1.674,1.674,0,1,0,.917,3.221c19.779-5.629,69.44-22.5,109.1-58.724l.268,6.565a1.675,1.675,0,0,0,1.672,1.607h.069a1.674,1.674,0,0,0,1.6-1.741Z" transform="translate(-0.249)"/></g></svg>